<svg width="20" height="20" viewBox="0 0 20 20" fill="none" xmlns="http://www.w3.org/2000/svg">
<path d="M16.953 9.545C16.984 9.784 17 10.038 17 10.308C17 11.843 16.535 12.875 16.09 13.516C15.865 13.839 15.642 14.066 15.48 14.211C15.405 14.2782 15.3262 14.3409 15.244 14.399L15.235 14.405C15.1631 14.4499 15.1038 14.5124 15.0627 14.5866C15.0216 14.6608 15 14.7442 15 14.829V16.5C15 16.6326 14.9473 16.7598 14.8536 16.8536C14.7598 16.9473 14.6326 17 14.5 17H13.116C13.0852 17 13.0557 16.9878 13.034 16.966C13.0122 16.9443 13 16.9148 13 16.884C13 16.267 12.5 15.767 11.884 15.767H10.116C9.5 15.767 9 16.267 9 16.884C9 16.9148 8.98778 16.9443 8.96602 16.966C8.94427 16.9878 8.91476 17 8.884 17H7.5C7.36739 17 7.24021 16.9473 7.14645 16.8536C7.05268 16.7598 7 16.6326 7 16.5V15.65C6.99971 15.5453 6.96655 15.4433 6.90518 15.3584C6.84382 15.2735 6.75736 15.2101 6.658 15.177L6.618 15.158C6.53859 15.119 6.46176 15.0749 6.388 15.026C6.168 14.884 5.821 14.62 5.356 14.149C4.93657 13.7172 4.59879 13.2131 4.359 12.661C4.175 12.239 3.79 11.868 3.275 11.781C3.19834 11.768 3.12872 11.7284 3.0784 11.6692C3.02809 11.6099 3.00033 11.5347 3 11.457V9.95C3 9.88141 3.02431 9.81504 3.06862 9.76267C3.11292 9.71031 3.17436 9.67535 3.242 9.664C3.792 9.571 4.182 9.15 4.334 8.686C4.464 8.288 4.698 7.766 5.086 7.373C5.4132 7.04672 5.77928 6.76191 6.176 6.525C6.33495 6.4294 6.49848 6.34163 6.666 6.262L6.692 6.25L6.697 6.248C6.78716 6.20935 6.86395 6.14504 6.91783 6.06307C6.97171 5.9811 7.00028 5.88509 7 5.787V3.69C7.253 3.91 7.548 4.148 7.866 4.36C8.3 4.652 8.817 4.926 9.348 5.025C9.47 4.692 9.632 4.374 9.828 4.077C9.76701 4.07052 9.70602 4.06419 9.645 4.058C9.29 4.022 8.863 3.825 8.422 3.53C8.02494 3.25695 7.65192 2.95051 7.307 2.614C7.19907 2.51102 7.06359 2.44157 6.91698 2.41406C6.77036 2.38655 6.61892 2.40216 6.481 2.459C6.33946 2.51456 6.21791 2.61141 6.13213 2.73696C6.04635 2.8625 6.00032 3.01095 6 3.163V5.477C5.40249 5.79287 4.85464 6.19483 4.374 6.67C3.831 7.22 3.536 7.91 3.384 8.375C3.324 8.553 3.194 8.658 3.076 8.678C2.77539 8.72857 2.5024 8.88396 2.30544 9.11661C2.10847 9.34927 2.00027 9.64416 2 9.949V11.456C1.99984 11.7704 2.11104 12.0746 2.31387 12.3148C2.5167 12.555 2.79805 12.7155 3.108 12.768C3.233 12.788 3.368 12.89 3.442 13.061C3.731 13.7255 4.13827 14.332 4.644 14.851C5.153 15.367 5.555 15.678 5.843 15.865C5.9 15.902 5.953 15.934 6 15.962V16.5C6 16.697 6.0388 16.892 6.11418 17.074C6.18956 17.256 6.30005 17.4214 6.43934 17.5607C6.57863 17.6999 6.74399 17.8104 6.92597 17.8858C7.10796 17.9612 7.30302 18 7.5 18H8.884C9.5 18 10 17.5 10 16.884C10 16.819 10.052 16.767 10.116 16.767H11.884C11.948 16.767 12 16.819 12 16.884C12 17.5 12.5 18 13.116 18H14.5C14.8978 18 15.2794 17.842 15.5607 17.5607C15.842 17.2794 16 16.8978 16 16.5V15.081C16.3472 14.7927 16.6534 14.4582 16.91 14.087C17.465 13.29 18 12.061 18 10.308C18 9.582 17.899 8.932 17.707 8.351C17.521 8.784 17.267 9.187 16.953 9.545Z" fill="black"/>
<path d="M11.5 4.5L10.5 6.5V7L12 8L15 9L16 8.5L16.5 6L15.5 4.5L14 3.5L11.5 4.5Z" fill="#DDDDDD"/>
<path d="M16.802 5.23199C17.1021 5.95714 17.1499 6.76213 16.9375 7.51766C16.7251 8.27319 16.265 8.93542 15.631 9.39799C15.201 9.70999 14.634 9.68799 14.144 9.48499L11.104 8.22599C10.614 8.02299 10.197 7.63799 10.114 7.11399C9.9846 6.26951 10.1685 5.40686 10.6312 4.68862C11.0938 3.97037 11.8031 3.44614 12.6255 3.21472C13.4479 2.9833 14.3266 3.06067 15.0959 3.43225C15.8652 3.80383 16.472 4.44396 16.802 5.23199ZM15.042 8.58999C15.4013 8.32866 15.6844 7.9763 15.8623 7.56919C16.0402 7.16208 16.1064 6.71491 16.054 6.27373C16.0017 5.83255 15.8327 5.41329 15.5645 5.05909C15.2963 4.7049 14.9386 4.42857 14.5281 4.25855C14.1177 4.08854 13.6693 4.03097 13.2292 4.09178C12.7891 4.1526 12.3732 4.32959 12.0242 4.60454C11.6753 4.87949 11.4059 5.24248 11.2438 5.65613C11.0817 6.06978 11.0327 6.51915 11.102 6.95799C11.1137 7.01473 11.1427 7.06643 11.185 7.10599C11.249 7.17399 11.351 7.24599 11.487 7.30199L14.527 8.56199C14.662 8.61699 14.786 8.63799 14.879 8.63499C14.937 8.63729 14.9943 8.62157 15.043 8.58999H15.042Z" fill="black"/>
<path d="M6.75 9.5C6.94891 9.5 7.13968 9.42098 7.28033 9.28033C7.42098 9.13968 7.5 8.94891 7.5 8.75C7.5 8.55109 7.42098 8.36032 7.28033 8.21967C7.13968 8.07902 6.94891 8 6.75 8C6.55109 8 6.36032 8.07902 6.21967 8.21967C6.07902 8.36032 6 8.55109 6 8.75C6 8.94891 6.07902 9.13968 6.21967 9.28033C6.36032 9.42098 6.55109 9.5 6.75 9.5Z" fill="black"/>
</svg>
