<svg width="32" height="32" viewBox="0 0 32 32" fill="none" xmlns="http://www.w3.org/2000/svg">
<path d="M5.37574 21.5774L12.0699 25.4665C12.4984 25.7153 12.9844 25.8463 13.4792 25.8463C13.974 25.8463 14.46 25.7153 14.8885 25.4665L19.9378 22.5309L15.7965 22.2273H15.7764C15.0842 22.2143 14.4067 22.0249 13.8074 21.6766L8.74396 18.743L5.37574 20.6987C5.30027 20.7442 5.2378 20.8086 5.19443 20.8856C5.15106 20.9626 5.12827 21.0496 5.12827 21.1381C5.12827 21.2265 5.15106 21.3135 5.19443 21.3905C5.2378 21.4675 5.30027 21.5319 5.37574 21.5774Z" fill="#171717"/>
<path d="M7.75512 16.6698L8.74364 17.2448L10.0281 17.9898L14.4513 20.565C14.8799 20.8134 15.3659 20.944 15.8606 20.9436H15.8747C16.0984 20.9295 16.321 20.9011 16.5411 20.8586C16.794 20.7956 17.0366 20.6968 17.2618 20.565L19.3778 19.328L20.02 18.9555L20.6623 18.583L22.4058 17.5707L18.4819 17.3096H18.4698C17.8392 17.3447 17.209 17.2339 16.6276 16.9856C16.4738 16.921 16.3239 16.8473 16.1787 16.7649L14.8701 16.0057H14.858L13.3158 15.0987L11.1233 13.8273L7.75512 15.783C7.67779 15.828 7.61358 15.8927 7.56894 15.9705C7.5243 16.0483 7.5008 16.1366 7.5008 16.2264C7.5008 16.3163 7.5243 16.4045 7.56894 16.4823C7.61358 16.5602 7.67779 16.6248 7.75512 16.6698Z" fill="#171717"/>
<path fill-rule="evenodd" clip-rule="evenodd" d="M10.139 11.7602L11.1275 12.3352L12.408 13.0742L16.8372 15.6413C17.3189 15.9195 17.8713 16.0491 18.4257 16.0138H18.4458C18.5706 16.0017 18.6955 15.9834 18.8183 15.9612C19.1107 15.901 19.3914 15.7937 19.6498 15.6433L21.7597 14.4185L22.3999 14.046L23.0421 13.6815L26.4124 11.7177C26.4897 11.6727 26.5539 11.6081 26.5986 11.5303C26.6432 11.4525 26.6667 11.3642 26.6667 11.2744C26.6667 11.1845 26.6432 11.0963 26.5986 11.0184C26.5539 10.9406 26.4897 10.876 26.4124 10.831L19.7162 6.94385C19.2877 6.69508 18.8017 6.56412 18.3069 6.56412C17.8121 6.56412 17.3261 6.69508 16.8976 6.94385L10.139 10.8735C10.0617 10.9185 9.99748 10.9831 9.95284 11.0609C9.9082 11.1388 9.88471 11.227 9.88471 11.3169C9.88471 11.4067 9.9082 11.495 9.95284 11.5728C9.99748 11.6506 10.0617 11.7153 10.139 11.7602Z" fill="#171717"/>
</svg>
