<svg width="102" height="29" viewBox="0 0 102 29" fill="none" xmlns="http://www.w3.org/2000/svg">
<rect width="29" height="29" fill="#F6F6F6"/>
<path d="M25.3751 21.025C25.3751 21.2081 25.2644 21.498 24.7967 21.8665C24.3372 22.2287 23.6274 22.5865 22.6856 22.9004C20.8096 23.5257 18.1719 23.925 15.2251 23.925C12.2783 23.925 9.64052 23.5257 7.76455 22.9004C6.82278 22.5865 6.11294 22.2287 5.65344 21.8665C5.18577 21.498 5.07507 21.2081 5.07507 21.025C5.07507 21.0126 5.07507 20.9998 5.07507 20.9868C5.07492 20.5412 5.07465 19.7028 5.23211 18.9023C5.31297 18.4912 5.42887 18.1272 5.58396 17.8474C5.73728 17.5708 5.90537 17.4169 6.0801 17.3437C6.43492 17.1951 6.93359 17.1335 7.59882 17.1606C8.25671 17.1875 9.01027 17.2971 9.84496 17.4393C10.1097 17.4844 10.3826 17.5329 10.6619 17.5825C12.1041 17.8388 13.7142 18.125 15.2251 18.125C16.7896 18.125 18.416 17.8279 19.8571 17.5648C20.1295 17.515 20.3953 17.4665 20.6528 17.4214C21.4813 17.2763 22.2224 17.1659 22.8684 17.1412C23.5203 17.1163 24.0066 17.1826 24.356 17.3376C24.4974 17.4004 24.6574 17.5471 24.8138 17.8384C24.9689 18.1274 25.0894 18.5024 25.1776 18.9207C25.3539 19.7565 25.3751 20.6331 25.3751 21.025Z" fill="#D8FF67" stroke="black" stroke-width="1.45"/>
<path d="M25.375 16.675C25.375 16.8581 25.2643 17.148 24.7966 17.5166C24.3371 17.8787 23.6273 18.2365 22.6855 18.5505C20.8096 19.1758 18.1718 19.575 15.225 19.575C12.2782 19.575 9.64045 19.1758 7.76448 18.5505C6.82271 18.2365 6.11287 17.8787 5.65337 17.5166C5.1857 17.148 5.07501 16.8581 5.07501 16.675C5.07501 16.4918 5.1857 16.202 5.65337 15.8334C6.11287 15.4713 6.82271 15.1134 7.76448 14.7995C9.64045 14.1742 12.2782 13.775 15.225 13.775C18.1718 13.775 20.8096 14.1742 22.6855 14.7995C23.6273 15.1134 24.3371 15.4713 24.7966 15.8334C25.2643 16.202 25.375 16.4918 25.375 16.675Z" fill="#D8FF67" stroke="black" stroke-width="1.45"/>
<path d="M5.07504 16.675V21.025" stroke="black" stroke-width="1.45"/>
<path d="M8.70004 18.85V23.2" stroke="black" stroke-width="1.45"/>
<path d="M14.5 18.85V23.2" stroke="black" stroke-width="1.45"/>
<path d="M20.3 18.85V23.2" stroke="black" stroke-width="1.45"/>
<path d="M25.375 16.675V21.025" stroke="black" stroke-width="1.45"/>
<path d="M25.3751 12.325C25.3751 12.5081 25.2644 12.798 24.7967 13.1666C24.3372 13.5287 23.6274 13.8865 22.6856 14.2004C20.8096 14.8258 18.1719 15.225 15.2251 15.225C12.2783 15.225 9.64052 14.8258 7.76455 14.2004C6.82278 13.8865 6.11294 13.5287 5.65344 13.1666C5.18577 12.798 5.07507 12.5081 5.07507 12.325C5.07507 12.3126 5.07507 12.2998 5.07507 12.2868C5.07492 11.8412 5.07465 11.0028 5.23211 10.2023C5.31297 9.79119 5.42887 9.42721 5.58396 9.14743C5.73728 8.87085 5.90537 8.71689 6.0801 8.64371C6.43492 8.49511 6.93359 8.43352 7.59882 8.46065C8.25671 8.48747 9.01027 8.59709 9.84496 8.73928C10.1097 8.78437 10.3826 8.83288 10.6619 8.88252C12.1041 9.13881 13.7142 9.42497 15.2251 9.42497C16.7896 9.42497 18.416 9.12796 19.8571 8.86479C20.1295 8.81504 20.3953 8.76651 20.6528 8.72141C21.4813 8.57633 22.2224 8.46594 22.8684 8.44125C23.5203 8.41634 24.0066 8.48259 24.356 8.63763C24.4974 8.70041 24.6574 8.84707 24.8138 9.13837C24.9689 9.42743 25.0894 9.80242 25.1776 10.2207C25.3539 11.0565 25.3751 11.9331 25.3751 12.325Z" fill="#D8FF67" stroke="black" stroke-width="1.45"/>
<path d="M25.375 7.97501C25.375 8.15816 25.2643 8.44803 24.7966 8.8166C24.3371 9.17872 23.6273 9.53655 22.6855 9.85047C20.8096 10.4758 18.1718 10.875 15.225 10.875C12.2782 10.875 9.64045 10.4758 7.76448 9.85047C6.82271 9.53655 6.11287 9.17872 5.65337 8.8166C5.1857 8.44803 5.07501 8.15816 5.07501 7.97501C5.07501 7.79185 5.1857 7.50198 5.65337 7.13342C6.11287 6.77129 6.82271 6.41346 7.76448 6.09954C9.64045 5.47422 12.2782 5.07501 15.225 5.07501C18.1718 5.07501 20.8096 5.47422 22.6855 6.09954C23.6273 6.41346 24.3371 6.77129 24.7966 7.13342C25.2643 7.50198 25.375 7.79185 25.375 7.97501Z" fill="#D8FF67" stroke="black" stroke-width="1.45"/>
<path d="M5.07504 7.97504V12.325" stroke="black" stroke-width="1.45"/>
<path d="M8.70004 10.15V14.5" stroke="black" stroke-width="1.45"/>
<path d="M14.5 10.15V14.5" stroke="black" stroke-width="1.45"/>
<path d="M20.3 10.15V14.5" stroke="black" stroke-width="1.45"/>
<path d="M25.375 7.97504V12.325" stroke="black" stroke-width="1.45"/>
<path d="M36.146 22.198C35.6473 22.198 35.266 22.0587 35.002 21.78C34.738 21.5013 34.606 21.1127 34.606 20.614V7.876C34.606 7.36267 34.7453 6.974 35.024 6.71C35.3027 6.43133 35.6987 6.292 36.212 6.292C36.652 6.292 36.9967 6.38 37.246 6.556C37.51 6.732 37.752 7.018 37.972 7.414L42.68 16.016L47.388 7.414C47.608 7.018 47.8427 6.732 48.092 6.556C48.356 6.38 48.7007 6.292 49.126 6.292C49.6247 6.292 50.006 6.43133 50.27 6.71C50.5487 6.974 50.688 7.36267 50.688 7.876V20.614C50.688 21.67 50.1747 22.198 49.148 22.198C48.1067 22.198 47.586 21.67 47.586 20.614V12.54L43.978 19.03C43.802 19.3087 43.6113 19.5213 43.406 19.668C43.2153 19.8 42.9587 19.866 42.636 19.866C42.3133 19.866 42.0493 19.8 41.844 19.668C41.6387 19.5213 41.4553 19.3087 41.294 19.03L37.686 12.606V20.614C37.686 21.67 37.1727 22.198 36.146 22.198ZM58.7395 22.242C57.5808 22.242 56.5688 22.0147 55.7035 21.56C54.8528 21.0907 54.1928 20.438 53.7235 19.602C53.2542 18.7513 53.0195 17.7467 53.0195 16.588C53.0195 15.444 53.2542 14.454 53.7235 13.618C54.1928 12.7673 54.8528 12.1147 55.7035 11.66C56.5688 11.2053 57.5808 10.978 58.7395 10.978C59.8982 10.978 60.9028 11.2053 61.7535 11.66C62.6188 12.1147 63.2862 12.7673 63.7555 13.618C64.2395 14.454 64.4815 15.444 64.4815 16.588C64.4815 17.7467 64.2395 18.7513 63.7555 19.602C63.2862 20.438 62.6188 21.0907 61.7535 21.56C60.9028 22.0147 59.8982 22.242 58.7395 22.242ZM58.7395 19.756C59.4435 19.756 60.0155 19.4993 60.4555 18.986C60.9102 18.4727 61.1375 17.6733 61.1375 16.588C61.1375 15.5173 60.9102 14.7327 60.4555 14.234C60.0155 13.7207 59.4435 13.464 58.7395 13.464C58.0355 13.464 57.4635 13.7207 57.0235 14.234C56.5835 14.7327 56.3635 15.5173 56.3635 16.588C56.3635 17.6733 56.5835 18.4727 57.0235 18.986C57.4635 19.4993 58.0355 19.756 58.7395 19.756ZM68.1746 22.198C67.0599 22.198 66.5026 21.6333 66.5026 20.504V12.694C66.5026 11.5793 67.0452 11.022 68.1306 11.022C69.2159 11.022 69.7586 11.5793 69.7586 12.694V12.782C70.1252 12.1953 70.6166 11.748 71.2326 11.44C71.8486 11.132 72.5379 10.978 73.3006 10.978C74.5766 10.978 75.5299 11.352 76.1606 12.1C76.7912 12.8333 77.1066 13.97 77.1066 15.51V20.504C77.1066 21.6333 76.5492 22.198 75.4346 22.198C74.9066 22.198 74.4959 22.0513 74.2026 21.758C73.9239 21.4647 73.7846 21.0467 73.7846 20.504V15.664C73.7846 14.916 73.6452 14.3807 73.3666 14.058C73.0879 13.7207 72.6772 13.552 72.1346 13.552C71.4306 13.552 70.8659 13.772 70.4406 14.212C70.0299 14.652 69.8246 15.2387 69.8246 15.972V20.504C69.8246 21.6333 69.2746 22.198 68.1746 22.198ZM85.1965 22.242C83.9205 22.242 82.8205 22.0147 81.8965 21.56C80.9872 21.0907 80.2832 20.438 79.7845 19.602C79.3005 18.7513 79.0585 17.754 79.0585 16.61C79.0585 15.4953 79.2932 14.52 79.7625 13.684C80.2465 12.8333 80.8992 12.1733 81.7205 11.704C82.5565 11.22 83.5172 10.978 84.6025 10.978C86.1719 10.978 87.4185 11.4767 88.3425 12.474C89.2665 13.4567 89.7285 14.7913 89.7285 16.478C89.7285 17.0353 89.3839 17.314 88.6945 17.314H82.2265C82.3439 18.1647 82.6519 18.788 83.1505 19.184C83.6639 19.5653 84.3679 19.756 85.2625 19.756C85.6145 19.756 86.0105 19.7193 86.4505 19.646C86.9052 19.558 87.3379 19.4113 87.7485 19.206C88.1739 19.0007 88.5332 18.964 88.8265 19.096C89.1199 19.2133 89.3179 19.4187 89.4205 19.712C89.5379 20.0053 89.5379 20.3133 89.4205 20.636C89.3179 20.944 89.0759 21.2007 88.6945 21.406C88.1812 21.6847 87.6092 21.89 86.9785 22.022C86.3625 22.1687 85.7685 22.242 85.1965 22.242ZM84.7345 13.178C84.0305 13.178 83.4585 13.3907 83.0185 13.816C82.5932 14.2413 82.3292 14.8353 82.2265 15.598H86.9785C86.8905 13.9847 86.1425 13.178 84.7345 13.178ZM94.4154 26.158C93.8287 26.158 93.4107 25.938 93.1614 25.498C92.9267 25.0727 92.9414 24.574 93.2054 24.002L94.3714 21.406L90.7854 13.178C90.5507 12.606 90.5507 12.1073 90.7854 11.682C91.0347 11.242 91.5261 11.022 92.2594 11.022C92.6554 11.022 92.9707 11.1173 93.2054 11.308C93.4547 11.484 93.6821 11.8287 93.8874 12.342L96.1314 18.062L98.4634 12.32C98.6687 11.8213 98.8961 11.484 99.1454 11.308C99.4094 11.1173 99.7614 11.022 100.201 11.022C100.759 11.022 101.147 11.242 101.367 11.682C101.602 12.1073 101.595 12.5987 101.345 13.156L96.1754 24.882C95.9554 25.3807 95.7061 25.718 95.4274 25.894C95.1634 26.07 94.8261 26.158 94.4154 26.158Z" fill="#222222"/>
</svg>
